/* XPM */
static const char *bottom_bun3_xpm[] = {
/* columns rows colors chars-per-pixel */
"24 32 256 2 ",
"   c #CE9B51",
".  c #C99B58",
"X  c #DDCBAE",
"o  c #C9A36A",
"O  c #D8AE71",
"+  c #CAA165",
"@  c #C1924D",
"#  c #B89259",
"$  c #D3AA70",
"%  c #DAB278",
"&  c #BD9D6C",
"*  c #D2AD78",
"=  c #CAAA7C",
"-  c #BD9251",
";  c #D8AD70",
":  c #D5BA91",
">  c #FBF7F4",
",  c #BE914B",
"<  c #D2A563",
"1  c #D5C1A1",
"2  c #D3B68A",
"3  c #C6964D",
"4  c #C19556",
"5  c #C4954C",
"6  c #CBB28B",
"7  c #CD9D59",
"8  c #F2ECE2",
"9  c #DECDB5",
"0  c #CEA364",
"q  c #BA8D49",
"w  c #D2A664",
"e  c #C99951",
"r  c #DAC7A9",
"t  c #B58B4A",
"y  c #D5A868",
"u  c #D9B176",
"i  c #E3CBA7",
"p  c #D3A45F",
"a  c #BD904B",
"s  c #CFB995",
"d  c #C69D61",
"f  c #CF9C51",
"g  c #EBE0D1",
"h  c #CDB691",
"j  c #DAB27A",
"k  c #E6D0B2",
"l  c #D7AC6F",
"z  c #D0A86D",
"x  c #FEFDFC",
"c  c #D2A35C",
"v  c #D7C09E",
"b  c #CFA76C",
"n  c #E1D1BA",
"m  c #E4D8C4",
"M  c #D9C3A2",
"N  c #C8974D",
"B  c #DCB57E",
"V  c #C2944C",
"C  c #AF894D",
"Z  c #B58F53",
"A  c #C7A676",
"S  c #CBA56E",
"D  c #AC8444",
"F  c #DAB077",
"G  c #C49858",
"H  c #CA994E",
"J  c #CEA66C",
"K  c #CEA56A",
"L  c #E6D5BB",
"P  c #B99965",
"I  c #DAC6A6",
"U  c #D1A059",
"Y  c #F5F0E8",
"T  c #F0E9DF",
"R  c #D8B88A",
"E  c #D2A15B",
"W  c #C8984F",
"Q  c #D3A35E",
"!  c #C1A170",
"~  c #D09E55",
"^  c #CC9A50",
"/  c #CA9B55",
"(  c #CA984D",
")  c #C2A77A",
"_  c #E1D3BD",
"`  c #E2D1B7",
"'  c #D5B587",
"]  c #DAB177",
"[  c #C59F65",
"{  c #C79A58",
"}  c #AA8243",
"|  c #BF924B",
" . c #D19E56",
".. c #DBB37C",
"X. c #D7AB6D",
"o. c #BE9049",
"O. c #CBA46A",
"+. c #D2BC9B",
"@. c #B08746",
"#. c #A98243",
"$. c #C2944B",
"%. c #FDFCFB",
"&. c #F7F1E9",
"*. c #B18949",
"=. c #CDA56D",
"-. c #D1A564",
";. c #CFA361",
":. c #CBA163",
">. c #CA9E5C",
",. c #EADBC6",
"<. c #DBC5A3",
"1. c #DBC199",
"2. c #D9AF75",
"3. c #C49857",
"4. c #CF9C4F",
"5. c #D4A763",
"6. c #CA9C59",
"7. c #CF9B4F",
"8. c #D9B075",
"9. c #D5A765",
"0. c #DBB47C",
"q. c #D7AC6D",
"w. c #D4A663",
"e. c #CFA86D",
"r. c #D5A867",
"t. c #CEA66B",
"y. c #D8AE72",
"u. c #D7AC6C",
"i. c #DBB47D",
"p. c #DAB277",
"a. c #CE9B4F",
"s. c #D6AA6B",
"d. c #CD9A4E",
"f. c #D5A766",
"g. c #D9B074",
"h. c #D4A664",
"j. c #D6AB6A",
"k. c #D4A762",
"l. c #AB8344",
"z. c #DCB67F",
"x. c #D6A969",
"c. c #C1934C",
"v. c #D6AA69",
"b. c #D6A96A",
"n. c #D6AA6A",
"m. c #D9AF73",
"M. c #D5A968",
"N. c #DCB580",
"B. c #CE9A4E",
"V. c #D5A966",
"C. c #C0924B",
"Z. c #D9B073",
"A. c #C5964D",
"S. c #A78041",
"D. c #D1BB98",
"F. c #C9984D",
"G. c #D2A25B",
"H. c #A88142",
"J. c #D09D54",
"K. c #CC9A4F",
"L. c #CDA76F",
"P. c #C59959",
"I. c #C0934B",
"U. c #C1934A",
"Y. c #D4A561",
"T. c #D4A765",
"R. c #D19F58",
"E. c #C2934B",
"W. c #D4A864",
"Q. c #A88041",
"!. c #CC994E",
"~. c #E9DCC9",
"^. c #CC9A4E",
"/. c #B79054",
"(. c #D4A661",
"). c #C7974F",
"_. c #B28C51",
"`. c #C3954F",
"'. c #AE8546",
"]. c #F5EFE8",
"[. c #FBEEED",
"{. c #CFAE7C",
"}. c #BF914C",
"|. c #D3A563",
" X c #B79763",
".X c #B89661",
"XX c #CDA15F",
"oX c #F7F2EB",
"OX c #C29F68",
"+X c #C89F63",
"@X c #D4BF9F",
"#X c #CAAD84",
"$X c #D4A863",
"%X c #CB9A50",
"&X c #DABF98",
"*X c #C6A370",
"=X c #C1985C",
"-X c #DCC6A5",
";X c #D4A662",
":X c #AB8547",
">X c #F9F5EF",
",X c #CFA463",
"<X c #C4944B",
"1X c #D3BE9C",
"2X c #CC994D",
"3X c #C7A067",
"4X c #FBF9F6",
"5X c #B88F4E",
"6X c #D0A05A",
"7X c #C6A16C",
"8X c #C69651",
"9X c #CC9B55",
"0X c #B78C49",
"qX c #C29B60",
"wX c #C5A97D",
"eX c #C39C61",
"rX c #CF9A4F",
"tX c #CDAA76",
"yX c #D9B276",
"uX c #DEC197",
"iX c #C49A58",
"pX c #C29553",
"aX c #BFA06E",
"sX c #C49755",
"dX c #C09149",
"fX c #D3B07F",
"gX c #F0E6D9",
"hX c #B78A47",
"jX c #F5F1EA",
"kX c #B68D4D",
"lX c #D09D53",
"zX c #B88B48",
"xX c #B38F56",
"cX c #FEFBFB",
"vX c #D6C3A4",
"bX c #D4C0A1",
"nX c #DBB47B",
"mX c #C89751",
"MX c #D1A664",
"NX c #D2A565",
"BX c #AF8647",
"VX c #AD8445",
"CX c #C79C5A",
"ZX c #AF8545",
"AX c #CDA66B",
"SX c #AC8548",
"DX c #D0A260",
"FX c #EFBEB7",
"GX c #D8AF72",
"HX c #CE9B4E",
"JX c #D4A764",
"KX c #DCB680",
"LX c #CF9C50",
"PX c #D5A866",
"IX c #D5A865",
"UX c None",
/* pixels */
"O.O.O.O.O.O.O.3X3Xo tX' uXi i i X 9 ~.8 >XUXUXUX",
"b t.AXK K K K + + O.$ fXR uXuX<.1.<.` ~.g UXUXUX",
"$ $ z y T.NXMX-.-.NXz l F i.N.' fX' : v M #X= #X",
"y.; X.x.PXT.JXJXJXT.PXM.n.s.s.s.z $ $ * * S A = ",
"u y.l n.r.IXJXJXJXIXIXIXIXIXT.T.T.T.T.w K o *XA ",
"2.; q.v.PXIXJXJXJXIXIXIXIXIXIXIXPXPXIXT.K S = = ",
"l s.v.r.T.T.IXIXIXIXIXIXIXIXIXV.r.PXT.w K tX2 s ",
"v.r.PXIXT.T.IXIXIXIXIXIXIXPXPXPXr.f.< ;.O.{.D.M ",
"v.M.r.r.PXPXPXPXIXIXIXPXPXPXPXPXf.< XX>.[ = +.<.",
"l q.X.s.v.M.r.PXIXIXIXPXPXPX9.JXY.DX. 4 =XA D.M ",
"] 8.m.; X.n.r.PXIXIXIXIX9.9.w.p Q 7 pX- # ! s 1 ",
"..% u y.l n.r.IXW.9.JXw.Y.Y.p E R./ @ 5X/.! s bX",
"..% 2.O X.x.PXJXw.(.p p c E U ~ lXe V q /.! s @X",
"u m.; X.y f.w.Y.p Q G.U R. .J.f 7.H E.q # ! s @X",
"X.s.y f.Y.p Q E E R.~ J.lXf f 7.7.H $.q # ! s bX",
"h.Y.p Q E E U ~ J.lX    7.7.7.7.7.H <Xa # ! s bX",
"c E U R.~ ~ lX    ^ d.d.d.a.a.7.a.H 5 a # ! s @X",
"R.~ lX  ^ ^ H H H F.F.F.F.H K.d.a.H V a # ! s @X",
"f   d.H F.N 3 A.5 5 5 5 5 3 N H H N c.q # ! h 1X",
"7.d.H N A.V $.c.c.C.C.C.C.V 5 N W 3 C.q # ! h @X",
"a.^.N 5 c.C.| | | , , , , C.V A.N A.c.5X.XwX1Xr ",
"a.H N V | , , , , , , a , | V 5 N 3 `.4 ! h 9 _ ",
"a.K.N V C., , , , , , , , C.V 3 W { d *X6 X g T ",
"LXd.H A.V c.C.| | | | , | c.V 8X. O.fXD.+._ 8 >X",
"LX  ^.F.3 5 V c.c.c.c.c.V pX3.+X=.fX<._ UXUXUXUX",
"LXLXa.^.H N N A.A.5 V `.sXeX*X2 &X: ` gXUXUXUXUX",
"LXLXLXa.d.H H H e / CXd d *X2 X m UXUXUXUXUXUXUX",
"LXLX    ^ %X%X/ 7 K {.2 A = 1Xm gXUXUXUXUXUXUXUX",
"~ 6XXXXX:.+ O.S O.{.v 9 UXUXUXUXUXUXUXUXUXUXUXUX",
"NX$ fX' : D.v v {.2 9 g UXUXUXUXUXUXUXUXUXUXUXUX",
"fX: <.X n ,.g g UXUXUXUXUXUXUXUXUXUXUXUXUXUXUXUX",
"R -X` m g 8 oX> UXUXUXUXUXUXUXUXUXUXUXUXUXUXUXUX"
};
