/* XPM */
static const char *lettuce1_xpm[] = {
/* columns rows colors chars-per-pixel */
"24 32 256 2 ",
"   c #FDFDFD",
".  c #00D027",
"X  c #00B422",
"o  c #00BE25",
"O  c #00C29B",
"+  c #00B34E",
"@  c #FCFDFC",
"#  c #00C39B",
"$  c #00B64F",
"%  c #00C199",
"&  c #00C69D",
"*  c #00A547",
"=  c #009A43",
"-  c #00C354",
";  c #17C9A4",
":  c #53BD65",
">  c #08BB29",
",  c #00C325",
"<  c #00D127",
"1  c #B8D9BE",
"2  c #00B523",
"3  c #00D028",
"4  c #00BF23",
"5  c #96CB9E",
"6  c #7AC987",
"7  c #00CC26",
"8  c #6ABF77",
"9  c #72CF81",
"0  c #00CE27",
"q  c #4DC261",
"w  c #88CC93",
"e  c #7CC587",
"r  c #00BB23",
"t  c #00BC21",
"y  c #00CD29",
"u  c #00CC28",
"i  c #67CA78",
"p  c #00BE24",
"a  c #00D129",
"s  c #42C458",
"d  c #E6F1E7",
"f  c #00BD25",
"g  c #B8D7BD",
"h  c #00BB22",
"j  c #36B64B",
"k  c #AED8B5",
"l  c #4ABF5E",
"z  c #C9E0CD",
"x  c #8FD099",
"c  c #00B622",
"v  c #E5EFE7",
"b  c #00B323",
"n  c #00BB24",
"m  c #00C927",
"M  c #98C8A0",
"N  c #98CFA0",
"B  c #BFDEC3",
"V  c #5DCD71",
"C  c #0EBB30",
"Z  c #00C124",
"A  c #02CF29",
"S  c #00D629",
"D  c #00CF29",
"F  c #12BD33",
"G  c #C4DFC9",
"H  c #00C224",
"J  c #00C323",
"K  c #DEEDE0",
"L  c #00A987",
"P  c #EEF4F3",
"I  c #57B981",
"U  c #C5D9D5",
"Y  c #00B08B",
"T  c #5EB983",
"R  c #B5D9D1",
"E  c #009F80",
"W  c #08A787",
"Q  c #00A647",
"!  c #F0F5F2",
"~  c #E7EFEA",
"^  c #71C8B5",
"/  c #E5F0EA",
"(  c #009676",
")  c #AFD6CE",
"_  c #17B058",
"`  c #00B14C",
"'  c #2FBFA1",
"]  c #79C7B8",
"[  c #00B692",
"{  c #00C555",
"}  c #71B18B",
"|  c #00B34F",
" . c #00A685",
".. c #00C79D",
"X. c #EDF3F2",
"o. c #F8FAF9",
"O. c #4CB676",
"+. c #0DB254",
"@. c #ECF3F0",
"#. c #1AD3AC",
"$. c #009C44",
"%. c #00C59C",
"&. c #00B792",
"*. c #2BC1A4",
"=. c #00B590",
"-. c #00B64E",
";. c #7BC5B5",
":. c #00C49B",
">. c #00C656",
",. c #F4F9F6",
"<. c #4AC3A9",
"1. c #F8FBFA",
"2. c #0ABE99",
"3. c #C2DDD7",
"4. c #2D9D85",
"5. c #AFD1BD",
"6. c #25B05E",
"7. c #00A949",
"8. c #A9D4BB",
"9. c #DFEDE5",
"0. c #5BC184",
"q. c #D5E8E4",
"w. c #00B18C",
"e. c #BBD8C7",
"r. c #008166",
"t. c #2B9D5D",
"y. c #00C855",
"u. c #7FCBBA",
"i. c #78CFBC",
"p. c #00C59D",
"a. c #1BB25D",
"s. c #D4E7E4",
"d. c #E5EEEC",
"f. c #84C5B7",
"g. c #E1EAE8",
"h. c #50BBA4",
"j. c #00B550",
"k. c #4AB375",
"l. c #05C29C",
"z. c #F6F9F6",
"x. c #0AB453",
"c. c #009341",
"v. c #00B94F",
"b. c #E7F1ED",
"n. c #00C99E",
"m. c #00C051",
"M. c #1BDCB4",
"N. c #EBF3EE",
"B. c #78BA93",
"V. c #C0D9D3",
"C. c #F9FBFA",
"Z. c #66C3AF",
"A. c #E4EDE8",
"S. c #00BE53",
"D. c #17D2AB",
"F. c #00B994",
"G. c #009943",
"H. c #00B750",
"J. c #00A483",
"K. c #FAFCFA",
"L. c #41B371",
"P. c #34B569",
"I. c #00A748",
"U. c #06B854",
"Y. c #00AB4A",
"T. c #00A247",
"R. c #00A785",
"E. c #7CBF97",
"W. c #00B74E",
"Q. c #FBFCFB",
"!. c #00B44E",
"~. c #00B08C",
"^. c #23BC66",
"/. c #7BC3B4",
"(. c white",
"). c white",
"_. c white",
"`. c white",
"'. c white",
"]. c white",
"[. c white",
"{. c white",
"}. c white",
"|. c white",
" X c white",
".X c white",
"XX c white",
"oX c white",
"OX c white",
"+X c white",
"@X c white",
"#X c white",
"$X c white",
"%X c white",
"&X c white",
"*X c white",
"=X c white",
"-X c white",
";X c white",
":X c white",
">X c white",
",X c white",
"<X c white",
"1X c white",
"2X c white",
"3X c white",
"4X c white",
"5X c white",
"6X c white",
"7X c white",
"8X c white",
"9X c white",
"0X c white",
"qX c white",
"wX c white",
"eX c white",
"rX c white",
"tX c white",
"yX c white",
"uX c white",
"iX c white",
"pX c white",
"aX c white",
"sX c white",
"dX c white",
"fX c white",
"gX c white",
"hX c white",
"jX c white",
"kX c white",
"lX c white",
"zX c white",
"xX c white",
"cX c white",
"vX c white",
"bX c white",
"nX c white",
"mX c white",
"MX c white",
"NX c white",
"BX c white",
"VX c white",
"CX c white",
"ZX c white",
"AX c white",
"SX c white",
"DX c white",
"FX c white",
"GX c white",
"HX c white",
"JX c white",
"KX c white",
"LX c white",
"PX c white",
"IX c white",
"UX c None",
/* pixels */
"UXUXUXUXUXUXUXUXUXUXUXUXUXUXUXUXUXUXUXUXUXUXUXUX",
"UXUXUXUXUXUXUX8.UXUXUXUXUXUXM ^.- S.7.I.U.0.UXUX",
"UXUXUXUXUXZ.; l.; <.8.UXUXUX+.m.{ >.- * * y.P.UX",
"UXUXUXUX] M.#.E J.L =.f.UXUXG.c.B.x.$ j.= Y.v.E.",
"UXUXUXUX*.D.W ( F.% &.[ 8.UX} t.UXT -.+ T.$.H.6.",
"UXUXUXUX2.Y  .# % # & ..i.UXUXUXUXM !.| + = + _ ",
"UXUXUXUX/.O :.O O p.~.w.u.UXUXUXUXUXk.W.$ Q ` O.",
"UXUXUXUXUXh.n.%.& R.r.4.UXUXUXUXUXUXUXI a.L.N UX",
"w M UXUXUXUX^ ' ;.f.f.UXUXUXUXUXUXUXUXUXUXUXUXUX",
"4 n : UXUXUXUXUXUXUXUXUXUXUXUXUXUXUXUXN e w M UX",
"2 c t j UXUXUXUXUXUXUXUXUXUXUXUXUX5 F H J 4 n : ",
"A a < 8 UXUXUXUXUXUXUXUXUXUXUXUXM Z h X b 2 c t ",
"S y 6 UXUXUXUXUXUXUXUXUXUXUXUXM C r X f o A a < ",
"s M UXUXUXUXUXUXUXUXUXUXUXM q > p o m D 0 S y 6 ",
"UXUXUXUXUXUXUXUXUXUXUXUXUXUXl 7 . 3 , . u s M UX",
"UXUXUXUXUXUXUXUXUXUXUXUXUXUXUXN 9 V i x M UXUXUX",
"UXUXUXUXUXUXUXUXUXUXUXUXUXUXUXUXUXUXUXUXUXUXUXUX",
"UXUXUXUXUX0.U.I.7.S.- ^.M UXUXUXUXUXUXUXUXUXUXUX",
"UXUXUXUXP.y.* * - >.{ m.+.UXUXUXUXUXUX8.UXUXUXUX",
"Z.UXUXE.v.Y.= j.$ x.B.c.G.UXUXUX8.<.; l.; Z.UXUX",
"M.] UX6.H.$.T.+ -.T UXt.} UXUXf.=.L J.E #.M.] UX",
"D.*.UX_ + = + | !.M UXUXUXUX8.[ &.% F.( W D.*.UX",
"Y 2.UXO.` Q $ W.k.UXUXUXUXUXi...& # % #  .Y 2.UX",
"O /.UXUXN L.a.I UXUXUXUXUXUXu.w.~.p.O O :.O /.UX",
"h.UXUXUXUXUXUXUXUXUXUXUXUXUXUX4.r.R.& %.n.h.UXUX",
"UXUXUXUXUXUXUXUXUXUXUXUXUXUXUXUXf.f.;.' ^ UXUXUX",
"UXUXUXUXUXUXUXUXUXUXUXUXUXUXUXUXUXUXUXUXUXUXUXUX",
"UXUXUXUXUXUXUXUXUXUXUXUXUXUXUXUXUXUXUXUXUXUXUXUX",
"UXUXUXUXUXUXUXUXUXUXUXUXUXUXUXUXUXUXUXUXUXUXUXUX",
"UXUXUXUXUXUXUXUXUXUXUXUXUXUXUXUXUXUXUXUXUXUXUXUX",
"UXUXUXUXUXUXUXUXUXUXUXUXUXUXUXUXUXUXUXUXUXUXUXUX",
"UXUXUXUXUXUXUXUXUXUXUXUXUXUXUXUXUXUXUXUXUXUXUXUX"
};
