/* XPM */
static const char *lettuce1_xpm[] = {
/* columns rows colors chars-per-pixel */
"24 16 256 2 ",
"   c #FDFDFD",
".  c #00D027",
"X  c #00B422",
"o  c #00BE25",
"O  c #00C29B",
"+  c #00B34E",
"@  c #FCFDFC",
"#  c #00C39B",
"$  c #00B64F",
"%  c #00C199",
"&  c #00C69D",
"*  c #00A547",
"=  c #009A43",
"-  c #00C354",
";  c #17C9A4",
":  c #53BD65",
">  c #08BB29",
",  c #00C325",
"<  c #00D127",
"1  c #B8D9BE",
"2  c #00B523",
"3  c #00D028",
"4  c #00BF23",
"5  c #96CB9E",
"6  c #7AC987",
"7  c #00CC26",
"8  c #6ABF77",
"9  c #72CF81",
"0  c #00CE27",
"q  c #4DC261",
"w  c #88CC93",
"e  c #7CC587",
"r  c #00BB23",
"t  c #00BC21",
"y  c #00CD29",
"u  c #00CC28",
"i  c #67CA78",
"p  c #00BE24",
"a  c #00D129",
"s  c #42C458",
"d  c #E6F1E7",
"f  c #00BD25",
"g  c #B8D7BD",
"h  c #00BB22",
"j  c #36B64B",
"k  c #AED8B5",
"l  c #4ABF5E",
"z  c #C9E0CD",
"x  c #8FD099",
"c  c #00B622",
"v  c #E5EFE7",
"b  c #00B323",
"n  c #00BB24",
"m  c #00C927",
"M  c #98C8A0",
"N  c #98CFA0",
"B  c #BFDEC3",
"V  c #5DCD71",
"C  c #0EBB30",
"Z  c #00C124",
"A  c #02CF29",
"S  c #00D629",
"D  c #00CF29",
"F  c #12BD33",
"G  c #C4DFC9",
"H  c #00C224",
"J  c #00C323",
"K  c #DEEDE0",
"L  c #00A987",
"P  c #EEF4F3",
"I  c #57B981",
"U  c #C5D9D5",
"Y  c #00B08B",
"T  c #5EB983",
"R  c #B5D9D1",
"E  c #009F80",
"W  c #08A787",
"Q  c #00A647",
"!  c #F0F5F2",
"~  c #E7EFEA",
"^  c #71C8B5",
"/  c #E5F0EA",
"(  c #009676",
")  c #AFD6CE",
"_  c #17B058",
"`  c #00B14C",
"'  c #2FBFA1",
"]  c #79C7B8",
"[  c #00B692",
"{  c #00C555",
"}  c #71B18B",
"|  c #00B34F",
" . c #00A685",
".. c #00C79D",
"X. c #EDF3F2",
"o. c #F8FAF9",
"O. c #4CB676",
"+. c #0DB254",
"@. c #ECF3F0",
"#. c #1AD3AC",
"$. c #009C44",
"%. c #00C59C",
"&. c #00B792",
"*. c #2BC1A4",
"=. c #00B590",
"-. c #00B64E",
";. c #7BC5B5",
":. c #00C49B",
">. c #00C656",
",. c #F4F9F6",
"<. c #4AC3A9",
"1. c #F8FBFA",
"2. c #0ABE99",
"3. c #C2DDD7",
"4. c #2D9D85",
"5. c #AFD1BD",
"6. c #25B05E",
"7. c #00A949",
"8. c #A9D4BB",
"9. c #DFEDE5",
"0. c #5BC184",
"q. c #D5E8E4",
"w. c #00B18C",
"e. c #BBD8C7",
"r. c #008166",
"t. c #2B9D5D",
"y. c #00C855",
"u. c #7FCBBA",
"i. c #78CFBC",
"p. c #00C59D",
"a. c #1BB25D",
"s. c #D4E7E4",
"d. c #E5EEEC",
"f. c #84C5B7",
"g. c #E1EAE8",
"h. c #50BBA4",
"j. c #00B550",
"k. c #4AB375",
"l. c #05C29C",
"z. c #F6F9F6",
"x. c #0AB453",
"c. c #009341",
"v. c #00B94F",
"b. c #E7F1ED",
"n. c #00C99E",
"m. c #00C051",
"M. c #1BDCB4",
"N. c #EBF3EE",
"B. c #78BA93",
"V. c #C0D9D3",
"C. c #F9FBFA",
"Z. c #66C3AF",
"A. c #E4EDE8",
"S. c #00BE53",
"D. c #17D2AB",
"F. c #00B994",
"G. c #009943",
"H. c #00B750",
"J. c #00A483",
"K. c #FAFCFA",
"L. c #41B371",
"P. c #34B569",
"I. c #00A748",
"U. c #06B854",
"Y. c #00AB4A",
"T. c #00A247",
"R. c #00A785",
"E. c #7CBF97",
"W. c #00B74E",
"Q. c #FBFCFB",
"!. c #00B44E",
"~. c #00B08C",
"^. c #23BC66",
"/. c #7BC3B4",
"(. c None",
"). c black",
"_. c black",
"`. c black",
"'. c black",
"]. c black",
"[. c black",
"{. c black",
"}. c black",
"|. c black",
" X c black",
".X c black",
"XX c black",
"oX c black",
"OX c black",
"+X c black",
"@X c black",
"#X c black",
"$X c black",
"%X c black",
"&X c black",
"*X c black",
"=X c black",
"-X c black",
";X c black",
":X c black",
">X c black",
",X c black",
"<X c black",
"1X c black",
"2X c black",
"3X c black",
"4X c black",
"5X c black",
"6X c black",
"7X c black",
"8X c black",
"9X c black",
"0X c black",
"qX c black",
"wX c black",
"eX c black",
"rX c black",
"tX c black",
"yX c black",
"uX c black",
"iX c black",
"pX c black",
"aX c black",
"sX c black",
"dX c black",
"fX c black",
"gX c black",
"hX c black",
"jX c black",
"kX c black",
"lX c black",
"zX c black",
"xX c black",
"cX c black",
"vX c black",
"bX c black",
"nX c black",
"mX c black",
"MX c black",
"NX c black",
"BX c black",
"VX c black",
"CX c black",
"ZX c black",
"AX c black",
"SX c black",
"DX c black",
"FX c black",
"GX c black",
"HX c black",
"JX c black",
"KX c black",
"LX c black",
"PX c black",
"IX c black",
"UX c black",
/* pixels */
"0.A.(.(.(.(.(.(.(.(.(.(.(.(.(.(.(.(.(.(.(.(.(.(.",
"y.P.! (.(.(.s.R q.(.(.(.(.(.5.^.- S.7.I.U.0.A.(.",
"Y.v.E.(.X.Z.; l.; <.) (.(.N.+.m.{ >.- * * y.P.! ",
"$.H.6.  ] M.#.E J.L =.f.(.9.G.c.B.x.$ j.= Y.v.E.",
"= + _ b.*.D.W ( F.% &.[ 3.@ } t.o.T -.+ T.$.H.6.",
"Q ` O.@.2.Y  .# % # & ..i.(.(.,.(.e.!.| + = + _ ",
"L.8./ (./.O :.O O p.~.w.u.(.(.(.(.Q.k.W.$ Q ` O.",
"(.(.(.(.(.h.n.%.& R.r.4.g.(.(.(.(.(.~ I a.L.8./ ",
"w B (.(.(.d.^ ' ;.U V.P (.(.(.(.(.(.(.(.C.(.(.(.",
"4 n : d (.(.(.1.(.(.(.(.(.(.(.(.(.(.K N e w B (.",
"2 c t j z.(.(.(.(.(.(.(.(.(.(.(.(.5 F H J 4 n : ",
"A a < 8 K.(.(.(.(.(.(.(.(.(.(.(.M Z h X b 2 c t ",
"S y 6   (.(.(.(.(.(.(.(.(.(.(.z C r X f o A a < ",
"s 1 (.(.(.(.(.(.(.(.(.(.(.g q > p o m D 0 S y 6 ",
"@ (.(.(.(.(.(.(.(.(.(.(.(.v l 7 . 3 , . u s 1 (.",
"(.(.(.(.(.(.(.(.(.(.(.(.(.(.  k 9 V i x G @ (.(."
};
