/* XPM */
static const char *meat3_xpm[] = {
/* columns rows colors chars-per-pixel */
"24 32 256 2 ",
"   c #F1B0A7",
".  c #F26D5C",
"X  c #D1351D",
"o  c #ED3A20",
"O  c #E95C4A",
"+  c #E89A8E",
"@  c #EEB8B0",
"#  c #FE4E38",
"$  c #EC968B",
"%  c #FF543E",
"&  c #EA391F",
"*  c #F8AAA0",
"=  c #F9391E",
"-  c #EB9C91",
";  c #FF5039",
":  c #FF371E",
">  c #ED5947",
",  c #F4391E",
"<  c #F2381E",
"1  c #FA3A20",
"2  c #FF6B59",
"3  c #F5452E",
"4  c #DE6552",
"5  c #FCEDEC",
"6  c #FF543C",
"7  c #FF604C",
"8  c #E66D5D",
"9  c #FF624E",
"0  c #FF6654",
"q  c #DD442E",
"w  c #F53A20",
"e  c #F13A20",
"r  c #F45A46",
"t  c #D43A23",
"y  c #F7DDD9",
"u  c #F9513B",
"i  c #FF5E4A",
"p  c #FF3E25",
"a  c #FF5C48",
"s  c #FF6451",
"d  c #FF4D36",
"f  c #ED513D",
"g  c #FF6E5E",
"h  c #FF5640",
"j  c #FF6856",
"k  c #E68A7C",
"l  c #EB9487",
"z  c #E93A20",
"x  c #DA3B23",
"c  c #F2513C",
"v  c #CE331B",
"b  c #FEFAFA",
"n  c #E28274",
"m  c #FE3A20",
"M  c #FF422A",
"N  c #FF5742",
"B  c #FF5944",
"V  c #DF3E26",
"C  c #FD381E",
"Z  c #F45C48",
"A  c #EB5643",
"S  c #FF6350",
"D  c #EDAEA5",
"F  c #E76453",
"G  c #FF4A33",
"H  c #FF6652",
"J  c #F36656",
"K  c #F2452E",
"L  c #FF3A22",
"P  c #D4351D",
"I  c #E2361D",
"U  c #F93F28",
"Y  c #FDF6F4",
"T  c #FF5A46",
"R  c #F5CAC5",
"E  c #F67D6D",
"W  c #E69083",
"Q  c #F1C1BA",
"!  c #D94A34",
"~  c #FF6452",
"^  c #FAE8E6",
"/  c #FF705E",
"(  c #FAE6E3",
")  c #FB513B",
"_  c #FF4830",
"`  c #F48D81",
"'  c #ED452F",
"]  c #FF5842",
"[  c #ED432E",
"{  c #D95440",
"}  c #F05A47",
"|  c #FAE5E3",
" . c #EA3A20",
".. c #F5513C",
"X. c #F1A69C",
"o. c #FF5440",
"O. c #EE3A1F",
"+. c #E5381E",
"@. c #FF462F",
"#. c #FFFDFC",
"$. c #F63E24",
"%. c #FF5A44",
"&. c #F63C22",
"*. c #F64129",
"=. c #F95E4A",
"-. c #EE381F",
";. c #DD705F",
":. c #EE4530",
">. c #D5422C",
",. c #D9361E",
"<. c #F15A48",
"1. c #FF442C",
"2. c #FC3A1F",
"3. c #EEB6AE",
"4. c #FF5C4A",
"5. c #FF533E",
"6. c #EC3A1F",
"7. c #FF5239",
"8. c #ED361D",
"9. c #FF4832",
"0. c #E79386",
"q. c #F14530",
"w. c #F4CEC9",
"e. c #E54029",
"r. c #D53620",
"t. c #FF5E49",
"y. c #F19A8F",
"u. c #FC523B",
"i. c #FF4A34",
"p. c #FF452E",
"a. c #ED391F",
"s. c #FF614E",
"d. c #FF5C46",
"f. c #FC3A20",
"g. c #FF3921",
"h. c #EB3920",
"j. c #FF3A1F",
"k. c #FF513A",
"l. c #FF533B",
"z. c #FF533D",
"x. c #FF391F",
"c. c #FF6F5D",
"v. c #FF523A",
"b. c #FF391E",
"n. c #FF3A1E",
"m. c #FF513B",
"M. c #FF523C",
"N. c #FF6E5D",
"B. c #FF6D5B",
"V. c #FF6C5A",
"C. c #FF503A",
"Z. c #F45945",
"A. c #FF523D",
"S. c #FF6E5C",
"D. c #FE3A1F",
"F. c #FF6C5B",
"G. c #FEFCFB",
"H. c #FF5F4B",
"J. c #FF513C",
"K. c #FE3B22",
"L. c #FF3B22",
"P. c #FF533A",
"I. c #F45946",
"U. c #FE3A1E",
"Y. c #FE391F",
"T. c #FF6958",
"R. c #EAA99E",
"E. c #FF624D",
"W. c #FF3F27",
"Q. c #FE523B",
"!. c #DB5D49",
"~. c #EA412D",
"^. c #EC4029",
"/. c #FCE7E4",
"(. c #FD391E",
"). c #FCF4F3",
"_. c #FF614C",
"`. c #EE6856",
"'. c #FD5039",
"]. c #FF4F37",
"[. c #FC543C",
"{. c #FF6C5C",
"}. c #F7DBD7",
"|. c #F9D5D1",
" X c #FADEDA",
".X c #FC523C",
"XX c #E7998D",
"oX c #ED4E3A",
"OX c #E44B37",
"+X c #EA4835",
"@X c #E13820",
"#X c #FF6551",
"$X c #E4786B",
"%X c #FF5B48",
"&X c #EF5E4B",
"*X c #F15F4C",
"=X c #F45B47",
"-X c #DE3720",
";X c #F47B6B",
":X c #CF341C",
">X c #FB3C23",
",X c #F8422C",
"<X c #F47766",
"1X c #E17362",
"2X c #E57F73",
"3X c #ED7E6F",
"4X c #F94D36",
"5X c #FE523C",
"6X c #F5C3BD",
"7X c #FE513A",
"8X c #F8E1DD",
"9X c #FF503B",
"0X c #F98A7C",
"qX c #F75039",
"wX c #F94F38",
"eX c #F54A34",
"rX c #E7503C",
"tX c #F7B3AB",
"yX c #EC6E5D",
"uX c #F5543E",
"iX c #F8BEB7",
"pX c #EE9F95",
"aX c #EAA399",
"sX c #FD513A",
"dX c #FA9C90",
"fX c #F85842",
"gX c #EA442D",
"hX c #F05340",
"jX c #EE3D24",
"kX c #F6C4BD",
"lX c #E55B47",
"zX c #EB381D",
"xX c #FCA69B",
"cX c #FB442E",
"vX c #F0432E",
"bX c #D85743",
"nX c #D85947",
"mX c #E8503C",
"MX c #E9543F",
"NX c #F3796A",
"BX c #F17C6D",
"VX c #E1877A",
"CX c #F0BEB7",
"ZX c #DF614D",
"AX c #F8BFB8",
"SX c #EF8678",
"DX c #FF6A5A",
"FX c #FCF3F2",
"GX c #F04831",
"HX c #F34B34",
"JX c #F44832",
"KX c #F33C25",
"LX c #FF533C",
"PX c #FF3A20",
"IX c #FF523B",
"UX c None",
/* pixels */
"> > } } } } } > A O `.<X0XdXxXxXX.D kX X5 UXUXUX",
"Z I.Z.Z.Z.Z.Z.Z.hX} *X. E 0X` dX` y.tXkX|.UXUXUX",
"=.=.fXfXfX[.[.[.[.fXfX7 j / <X<X<XE 0XdXpX3X1X$X",
"s.i T h % 5XQ.v.l.5X% % N T %Xa %X=.S J . `.8 1X",
"s 7 %XN % IXk.k.v.IXIXIXIXM.5X5X5X[.[.[.fX} F 8 ",
"9 i T h z.IXk.k.v.IXIXIXIXIXIXl.LXLXl.l.fX*XyXyX",
"a B h % M.IXIXIXIXIXIXIXIXIXl.LX% z.Q.sXfX`.3XSX",
"N % % LXM.IXIXIXIXIXIXIXM.M.LXz.z.5X'.wXZ.yXW $ ",
"N h % % % z.M.M.IXIXIXLXLXz.z.z.M.'.4XHXMXyXl - ",
"t.%XT B N % z.M.IXIXIXLXM.A.J.9X# 4Xq.gXrX8 W - ",
"0 S 7 i T h % M.IXIXIXIXm.9X# d 9.cX^.e.! 8 W + ",
"T.0 s 7 T N % IXv.k.; ].# d G @.1.U o @X! 8 k XX",
"T.0 9 i B h z.C.; ].d G _ @.1.W.p &.o @X! 4 k XX",
"~ 7 t.B % M.; d i._ @.1.M W.p L.K.= -.+.! 4 k XX",
"T ] h A.# d G @.1.M W.p p L.L.PXm = < +.! 4 k XX",
"m.# d G _ p.1.M p K.K.m m PXPXg.Y.2.e z ! 4 k XX",
"_ p.1.M W.W.p K.K.m Y.Y.Y.2.m m m 1 e z ! 4 k XX",
"M W.p K.>X1 1 1 = = = = = = 1 f.f.1 e z ! 4 k XX",
"p K.m 1 = = , , < < e e e , w 1 1 w O.+.! 4 k 0.",
"m m = w < e e O.o o 6.6.o o e w w w a.z ! 4 k l ",
"D.2.= e O.o 6. . . . . . .6.O.w w e o e.{ 1X0.pX",
"D.1 w e  . . .z  . .z z  .6.O.w w w ^.OX4 W   CX",
"D.1 w e 6. . . . . .z z  .6.e w $.3 hXF 2XD w.}.",
"m f.1 w e o 6. . . . . . .o e KXJXZ BXl 0.CX8X5 ",
"PXf.2.= w e e O.O.o o o jX^.GXhXJ <Xy.CXUXUXUXUX",
"PXPXD.2.1 w w , , e e jX[ f `.SX` 0X  |.UXUXUXUX",
"PXPXm D.2.2.1 1 $.,XHXhXf F SXX.iXUXUXUXUXUXUXUX",
"PXK.K.K.>X>XU ,XeX=X<XSX`.8 l iX|.UXUXUXUXUXUXUX",
"M 9.# .XfXZ *XJ <.<Xy.tXUXUXUXUXUXUXUXUXUXUXUXUX",
"B j <XE 0X` y.y.<X3X* R UXUXUXUXUXUXUXUXUXUXUXUX",
"g 0XdXxXtXkXw.|.UXUXUXUXUXUXUXUXUXUXUXUXUXUXUXUX",
"E dX* iXw. X5 FXUXUXUXUXUXUXUXUXUXUXUXUXUXUXUXUX"
};
