/* XPM */
static const char *top_bun0_xpm[] = {
/* columns rows colors chars-per-pixel */
"24 16 256 2 ",
"   c #FF3213",
".  c #FEFDFD",
"X  c #FF6D5A",
"o  c #FF533D",
"O  c #D67D73",
"+  c #FF5842",
"@  c #FF3F24",
"#  c #DF958E",
"$  c #FF6C58",
"%  c #FF361A",
"&  c #FF3315",
"*  c #FF5A45",
"=  c #FF3614",
"-  c #FF3B1E",
";  c #FF3C20",
":  c #F7F5F5",
">  c #EB5C4B",
",  c #FF4F3A",
"<  c #FE3314",
"1  c #FF4D37",
"2  c #FF6956",
"3  c #FFFDFD",
"4  c #FF6D59",
"5  c #FF5B43",
"6  c #D7958E",
"7  c #E6CBC9",
"8  c #F93F23",
"9  c #DA9C95",
"0  c #D46154",
"q  c #CF756A",
"w  c #D66051",
"e  c #DC351B",
"r  c #F53E23",
"t  c #DEA099",
"y  c #DAA7A1",
"u  c #EA5D4B",
"i  c #CB3117",
"p  c #FF4831",
"a  c #D14D3E",
"s  c #FF462E",
"d  c #D9847B",
"f  c #D4B6B1",
"g  c #DD6C5F",
"h  c #FF3211",
"j  c #D49B94",
"k  c #ECE6E5",
"l  c #DEA7A1",
"z  c #F5EFEE",
"x  c #D47D73",
"c  c #FF614E",
"v  c #DB8379",
"b  c #FF624C",
"n  c #FF6E5A",
"m  c #FC7060",
"M  c #FF7260",
"N  c #E8D5D3",
"B  c #FF705C",
"V  c #FF5E48",
"C  c #FEFEFE",
"Z  c #FF4F37",
"A  c #EF3313",
"S  c #D86358",
"D  c #E09188",
"F  c #F9310F",
"G  c #E6DAD9",
"H  c #D28074",
"J  c #DE9890",
"K  c #FF6B56",
"L  c #FF5A43",
"P  c #FF6E5B",
"I  c #FF4D38",
"U  c #EDD8D6",
"Y  c #E16F63",
"T  c #FF4933",
"R  c #D8776B",
"E  c #FF5642",
"W  c #FF300F",
"Q  c #F6ECEB",
"!  c #D9A8A2",
"~  c #CF6356",
"^  c #FD3B1D",
"/  c #FF563C",
"(  c #FF5A44",
")  c #FF563D",
"_  c #FF381D",
"`  c #FF3416",
"'  c #F05541",
"]  c #F5371D",
"[  c #E5CBC9",
"{  c #E86050",
"}  c #FF381B",
"|  c #B9412F",
" . c #FF3617",
".. c #DABEBB",
"X. c #D57E74",
"o. c #CD4F40",
"O. c #FE4B33",
"+. c #FF4832",
"@. c #E0AAA5",
"#. c #E54631",
"$. c #D35D50",
"%. c #EFE7E6",
"&. c #FF3818",
"*. c #E1CAC7",
"=. c #FF3515",
"-. c #F8300F",
";. c #CD8F87",
":. c #FF543C",
">. c #DF3720",
",. c #DE7A70",
"<. c #CB6B5F",
"1. c #FF6451",
"2. c #E73213",
"3. c #FDFBFB",
"4. c #DBC3C1",
"5. c #F54229",
"6. c #FF5C45",
"7. c #FF462A",
"8. c #F46250",
"9. c #E2D4D3",
"0. c #D1B2AD",
"q. c #ECDFDE",
"w. c #CA5244",
"e. c #FF6955",
"r. c #FF4F3A",
"t. c #E4CDCA",
"y. c #E9887D",
"u. c #FF543E",
"i. c #E9DEDC",
"p. c #FF6855",
"a. c #E6CAC7",
"s. c #F9472F",
"d. c #DE8E85",
"f. c #FDFCFC",
"g. c #DF8A81",
"h. c #F18F84",
"j. c #FF5842",
"k. c #CB867F",
"l. c #DC9A94",
"z. c #D57A6F",
"x. c #D9A9A4",
"c. c #FF4C37",
"v. c #FF6853",
"b. c #FF3517",
"n. c #EBDFDD",
"m. c #D78177",
"M. c #ED8A7F",
"N. c #FD533E",
"B. c #FF452E",
"V. c #BB4231",
"C. c #EF3618",
"Z. c #FD3212",
"A. c #D1968F",
"S. c #E2BDB9",
"D. c #E48F85",
"F. c #FF6451",
"G. c #FF5D48",
"H. c #DF8F87",
"J. c #FD3516",
"K. c None",
"L. c black",
"P. c black",
"I. c black",
"U. c black",
"Y. c black",
"T. c black",
"R. c black",
"E. c black",
"W. c black",
"Q. c black",
"!. c black",
"~. c black",
"^. c black",
"/. c black",
"(. c black",
"). c black",
"_. c black",
"`. c black",
"'. c black",
"]. c black",
"[. c black",
"{. c black",
"}. c black",
"|. c black",
" X c black",
".X c black",
"XX c black",
"oX c black",
"OX c black",
"+X c black",
"@X c black",
"#X c black",
"$X c black",
"%X c black",
"&X c black",
"*X c black",
"=X c black",
"-X c black",
";X c black",
":X c black",
">X c black",
",X c black",
"<X c black",
"1X c black",
"2X c black",
"3X c black",
"4X c black",
"5X c black",
"6X c black",
"7X c black",
"8X c black",
"9X c black",
"0X c black",
"qX c black",
"wX c black",
"eX c black",
"rX c black",
"tX c black",
"yX c black",
"uX c black",
"iX c black",
"pX c black",
"aX c black",
"sX c black",
"dX c black",
"fX c black",
"gX c black",
"hX c black",
"jX c black",
"kX c black",
"lX c black",
"zX c black",
"xX c black",
"cX c black",
"vX c black",
"bX c black",
"nX c black",
"mX c black",
"MX c black",
"NX c black",
"BX c black",
"VX c black",
"CX c black",
"ZX c black",
"AX c black",
"SX c black",
"DX c black",
"FX c black",
"GX c black",
"HX c black",
"JX c black",
"KX c black",
"LX c black",
"PX c black",
"IX c black",
"UX c black",
/* pixels */
"K.K.K.K.K.K.K.K.K.K.K.K.K.K.K.K.K.K.K.K.K.K.K.K.",
"K.K.K.K.K.K.K.K.K.K.K.K.K.K.K.K.K.7 # m.d v # l ",
"K.K.q.y H.O X.x O l.N K.K.K.K.: ~ } h Z.<     -.",
"K.K.;.2.& % % &.=.` ] <.x.n.K.t.A ^ T +.I r.r.p ",
"K.K...e 5.1 c.O.s.B.@ = F V.K.U 8 :.P $ F.M B v.",
"K.K.K.z./ 6.X F.G.* p.j.s C.0.K.d.{ 8.m > Y J a.",
"K.K.K.K.9 ' j.b X ( 2 e.L Z H K.K.C . 3 . K.K.K.",
"K.K.K.K.K.3.[ 6 M.h.D.D k.! Q K.K.K.K.K.K.K.K.K.",
"K.K.K.K.K.K.K.K.K.K.K.K.K.K.K.K.K.K.K.K.K.K.K.K.",
"K.K.K.K.K.K.K.K.K.K.K.S.,.o.w.a S g.f K.K.K.K.K.",
"K.K.K.K.K.K.K.K.K.K.q  .W b.- ; _ J.i 9.K.K.K.K.",
"K.K.K.K.K.K.K.K.K.z >.@ N.o o j.c E 7.j K.K.K.K.",
"K.K.K.K.K.K.K.K.K.k #.) $ 4 V n K 5 u.*.K.K.K.K.",
"K.K.K.K.K.K.K.K.K.K.@.y.R 0 w $.g t %.K.K.K.K.K.",
"K.K.K.K.K.K.K.K.K.K.K.K.K.K.K.K.K.K.K.K.K.K.K.K.",
"K.K.K.K.K.K.K.K.K.K.K.K.K.K.K.K.K.K.K.K.K.K.K.K."
};
